Coordinates
version=1
nRows=17
nColumns=40
inDegrees=yes

Units are S.I. units (second, meters, Newtons, ...)
If the header above contains a line with 'inDegrees', this indicates whether rotational values are in degrees (yes) or radians (no).

endheader
time	pelvis_tilt	pelvis_list	pelvis_rotation	pelvis_tx	pelvis_ty	pelvis_tz	hip_flexion_r	hip_adduction_r	hip_rotation_r	knee_angle_r	knee_angle_r_beta	ankle_angle_r	subtalar_angle_r	mtp_angle_r	hip_flexion_l	hip_adduction_l	hip_rotation_l	knee_angle_l	knee_angle_l_beta	ankle_angle_l	subtalar_angle_l	mtp_angle_l	lumbar_extension	lumbar_bending	lumbar_rotation	arm_flex_r	arm_add_r	arm_rot_r	elbow_flex_r	pro_sup_r	wrist_flex_r	wrist_dev_r	arm_flex_l	arm_add_l	arm_rot_l	elbow_flex_l	pro_sup_l	wrist_flex_l	wrist_dev_l
      4.64000000	    -43.01048549	     -5.12520024	      5.69878067	      0.12519474	      0.43456578	     -1.16790787	    132.60554804	    -48.88151273	     19.89466655	    111.12356159	      1.93947203	     28.34611235	      0.49525270	      0.00000000	    136.09829742	    -35.43974935	     16.54082937	    104.80791988	      1.82924328	     24.61327980	     13.79990894	      0.00000000	      0.00000000	      0.00000000	      0.00000000	     44.99941975	    -15.00000334	     44.99941975	     75.00017585	     45.00000026	      0.00000000	      0.00000000	     44.99941975	    -15.00000334	     44.99941975	     75.00017585	     45.00000026	      0.00000000	      0.00000000
      4.64500000	    -43.03000584	     -5.14651763	      5.74543081	      0.12477184	      0.43490336	     -1.16806701	    132.60296170	    -48.86703243	     19.89355891	    111.06625772	      1.93847189	     28.25721552	      0.43102688	      0.00000000	    136.06269705	    -35.36691076	     16.44419174	    104.74448879	      1.82813620	     24.54908226	     13.74727128	      0.00000000	      0.00000000	      0.00000000	      0.00000000	     44.99943345	    -15.00000320	     44.99943345	     75.00017585	     45.00000026	      0.00000000	      0.00000000	     44.99943345	    -15.00000320	     44.99943345	     75.00017585	     45.00000026	      0.00000000	      0.00000000
      4.65000000	    -43.07150558	     -5.24076142	      5.77742910	      0.12434825	      0.43530825	     -1.16821572	    132.48734319	    -48.89652140	     19.73302601	    110.98683002	      1.93708561	     28.24217474	      0.32843617	      0.00000000	    136.10988717	    -35.25322850	     16.41991489	    104.65556512	      1.82658419	     24.40937787	     13.66378202	      0.00000000	      0.00000000	      0.00000000	      0.00000000	     44.99944540	    -15.00000308	     44.99944540	     75.00017585	     45.00000026	      0.00000000	      0.00000000	     44.99944540	    -15.00000308	     44.99944540	     75.00017585	     45.00000026	      0.00000000	      0.00000000
      4.65500000	    -43.16694154	     -5.22371326	      5.87696902	      0.12374981	      0.43562335	     -1.16844937	    132.65850559	    -48.87866625	     19.84909309	    110.90520793	      1.93566104	     28.07247146	      0.15027479	      0.00000000	    136.06986940	    -35.14157009	     16.20674413	    104.55552788	      1.82483821	     24.28103978	     13.55190546	      0.00000000	      0.00000000	      0.00000000	      0.00000000	     44.99945938	    -15.00000293	     44.99945938	     75.00017585	     45.00000026	      0.00000000	      0.00000000	     44.99945938	    -15.00000293	     44.99945938	     75.00017585	     45.00000026	      0.00000000	      0.00000000
      4.66000000	    -43.25396655	     -5.27097938	      5.93873956	      0.12317924	      0.43598632	     -1.16870044	    132.70242430	    -48.87867358	     19.81906302	    110.80778635	      1.93396071	     27.92440125	     -0.02576020	      0.00000000	    136.09735322	    -35.01821144	     16.08870077	    104.46917244	      1.82333103	     24.12821239	     13.42648934	      0.00000000	      0.00000000	      0.00000000	      0.00000000	     44.99947080	    -15.00000282	     44.99947080	     75.00017585	     45.00000026	      0.00000000	      0.00000000	     44.99947080	    -15.00000282	     44.99947080	     75.00017585	     45.00000026	      0.00000000	      0.00000000
      4.66500000	    -43.31717278	     -5.33805280	      5.96603966	      0.12261166	      0.43659012	     -1.16880644	    132.62150971	    -48.86759022	     19.65309978	    110.70044831	      1.93208731	     27.77516489	     -0.29582150	      0.00000000	    136.10549674	    -34.93041381	     16.00777265	    104.33734967	      1.82103028	     24.02345479	     13.38479552	      0.00000000	      0.00000000	      0.00000000	      0.00000000	     44.99951007	    -15.00000244	     44.99951007	     75.00017585	     45.00000026	      0.00000000	      0.00000000	     44.99951007	    -15.00000244	     44.99951007	     75.00017585	     45.00000026	      0.00000000	      0.00000000
      4.67000000	    -43.44145151	     -5.33794586	      6.06080299	      0.12193578	      0.43703137	     -1.16905852	    132.76104654	    -48.84623356	     19.73351088	    110.59397365	      1.93022897	     27.69092121	     -0.32408412	      0.00000000	    136.09425834	    -34.81083867	     15.77671926	    104.21658595	      1.81892256	     23.81579577	     13.18166371	      0.00000000	      0.00000000	      0.00000000	      0.00000000	     44.99952574	    -15.00000230	     44.99952574	     75.00017585	     45.00000026	      0.00000000	      0.00000000	     44.99952574	    -15.00000230	     44.99952574	     75.00017585	     45.00000026	      0.00000000	      0.00000000
      4.67500000	    -43.50730849	     -5.40259832	      6.14328992	      0.12134603	      0.43766082	     -1.16930898	    132.73892565	    -48.87773450	     19.65518165	    110.47709324	      1.92818903	     27.53919851	     -0.50999266	      0.00000000	    136.06535003	    -34.66708009	     15.64212330	    104.08885676	      1.81669327	     23.69719288	     13.10598530	      0.00000000	      0.00000000	      0.00000000	      0.00000000	     44.99953735	    -15.00000219	     44.99953735	     75.00017585	     45.00000026	      0.00000000	      0.00000000	     44.99953735	    -15.00000219	     44.99953735	     75.00017585	     45.00000026	      0.00000000	      0.00000000
      4.68000000	    -43.63024716	     -5.41854716	      6.20875622	      0.12061806	      0.43833825	     -1.16948057	    132.79107456	    -48.84669387	     19.60063779	    110.33301750	      1.92567443	     27.38475500	     -0.76199842	      0.00000000	    136.04298769	    -34.56705641	     15.43827966	    103.92043750	      1.81375379	     23.51854926	     12.99346463	      0.00000000	      0.00000000	      0.00000000	      0.00000000	     44.99954915	    -15.00000209	     44.99954915	     75.00017585	     45.00000026	      0.00000000	      0.00000000	     44.99954915	    -15.00000209	     44.99954915	     75.00017585	     45.00000026	      0.00000000	      0.00000000
      4.68500000	    -43.73171746	     -5.43507372	      6.28235805	      0.11993519	      0.43905819	     -1.16968458	    132.83035840	    -48.82412837	     19.55381508	    110.19234835	      1.92321929	     27.22820035	     -1.01359240	      0.00000000	    135.99417815	    -34.46664755	     15.23918404	    103.77149261	      1.81115422	     23.38896015	     12.91300537	      0.00000000	      0.00000000	      0.00000000	      0.00000000	     44.99956565	    -15.00000194	     44.99956565	     75.00017585	     45.00000026	      0.00000000	      0.00000000	     44.99956565	    -15.00000194	     44.99956565	     75.00017585	     45.00000026	      0.00000000	      0.00000000
      4.69000000	    -43.75360445	     -5.68082292	      6.23629812	      0.11932984	      0.44019071	     -1.16994301	    132.32505059	    -48.88087665	     18.98268146	    109.98472399	      1.91959556	     27.15384434	     -1.13831939	      0.00000000	    136.09335568	    -34.29297352	     15.34248123	    103.61369951	      1.80840021	     23.15644960	     12.69261890	      0.00000000	      0.00000000	      0.00000000	      0.00000000	     44.99957816	    -15.00000184	     44.99957816	     75.00017585	     45.00000026	      0.00000000	      0.00000000	     44.99957816	    -15.00000184	     44.99957816	     75.00017585	     45.00000026	      0.00000000	      0.00000000
      4.69500000	    -43.95850087	     -5.52233872	      6.42510061	      0.11839515	      0.44067259	     -1.17019066	    132.83274590	    -48.80078137	     19.37296624	    109.86376643	      1.91748445	     26.87832947	     -1.43458689	      0.00000000	    135.93703514	    -34.19665657	     14.85734300	    103.42577626	      1.80512033	     23.02811977	     12.65106010	      0.00000000	      0.00000000	      0.00000000	      0.00000000	     44.99960173	    -15.00000164	     44.99960173	     75.00017585	     45.00000026	      0.00000000	      0.00000000	     44.99960173	    -15.00000164	     44.99960173	     75.00017585	     45.00000026	      0.00000000	      0.00000000
      4.70000000	    -43.75527654	     -5.86286066	      6.12301040	      0.11813887	      0.44262538	     -1.16992345	    131.59078968	    -48.73417766	     18.15434621	    109.60481972	      1.91296498	     26.87763897	     -1.67776354	      0.00000000	    136.00690873	    -34.27564795	     15.32792665	    103.24956852	      1.80204492	     22.99486310	     12.95151159	      0.00000000	      0.00000000	      0.00000000	      0.00000000	     44.99961244	    -15.00000155	     44.99961244	     75.00017585	     45.00000026	      0.00000000	      0.00000000	     44.99961244	    -15.00000155	     44.99961244	     75.00017585	     45.00000026	      0.00000000	      0.00000000
      4.70500000	    -44.21317405	     -5.60671155	      6.56796660	      0.11672602	      0.44252013	     -1.17070019	    132.82875607	    -48.76172643	     19.16385782	    109.49304138	      1.91101408	     26.51601220	     -1.87225594	      0.00000000	    135.85928648	    -33.91536490	     14.44245994	    103.03514056	      1.79830245	     22.63556292	     12.34620255	      0.00000000	      0.00000000	      0.00000000	      0.00000000	     44.99963593	    -15.00000137	     44.99963593	     75.00017585	     45.00000026	      0.00000000	      0.00000000	     44.99963593	    -15.00000137	     44.99963593	     75.00017585	     45.00000026	      0.00000000	      0.00000000
      4.71000000	    -44.32023708	     -5.75692998	      6.62516109	      0.11586086	      0.44362006	     -1.17104550	    132.64121606	    -48.80461067	     18.85989497	    109.28778371	      1.90743166	     26.38673692	     -2.11909069	      0.00000000	    135.87903161	    -33.68757562	     14.34207609	    102.82725009	      1.79467407	     22.37157662	     12.13152418	      0.00000000	      0.00000000	      0.00000000	      0.00000000	     44.99965289	    -15.00000124	     44.99965289	     75.00017585	     45.00000026	      0.00000000	      0.00000000	     44.99965289	    -15.00000124	     44.99965289	     75.00017585	     45.00000026	      0.00000000	      0.00000000
      4.71500000	    -44.48444718	     -5.69873807	      6.71613444	      0.11494293	      0.44459551	     -1.17126305	    132.79355709	    -48.72540529	     18.91566640	    109.08024349	      1.90380940	     26.16030685	     -2.31542147	      0.00000000	    135.76342729	    -33.60330178	     14.00491147	    102.60768281	      1.79084190	     22.22247983	     11.99464400	      0.00000000	      0.00000000	      0.00000000	      0.00000000	     44.99966455	    -15.00000116	     44.99966455	     75.00017585	     45.00000026	      0.00000000	      0.00000000	     44.99966455	    -15.00000116	     44.99966455	     75.00017585	     45.00000026	      0.00000000	      0.00000000
      4.72000000	    -44.63917574	     -5.78183687	      6.79926522	      0.11394714	      0.44571765	     -1.17163550	    132.75300233	    -48.73494571	     18.74705296	    108.84811455	      1.89975798	     25.96668946	     -2.53759273	      0.00000000	    135.73404829	    -33.38826089	     13.79665708	    102.37129665	      1.78671619	     21.99042220	     11.74740856	      0.00000000	      0.00000000	      0.00000000	      0.00000000	     44.99967515	    -15.00000109	     44.99967515	     75.00017585	     45.00000026	      0.00000000	      0.00000000	     44.99967515	    -15.00000109	     44.99967515	     75.00017585	     45.00000026	      0.00000000	      0.00000000
